<?xml version="1.0" standalone="no"?>
<!DOCTYPE svg PUBLIC "-//W3C//DTD SVG 1.1//EN" "http://www.w3.org/Graphics/SVG/1.1/DTD/svg11.dtd">
<svg width="2970" height="2100" version="1.1" xmlns="http://www.w3.org/2000/svg">

<polyline points="272,1403 273,1397 275,1391 279,1385 285,1381 291,1379 297,1378 297,1378 527,1378 527,1378 533,1379 540,1381 545,1385 549,1391 551,1397 552,1403 552,1403 552,1600 552,1600 551,1606 549,1613 545,1618 540,1622 533,1624 527,1625 527,1625 297,1625 297,1625 291,1624 285,1622 279,1618 275,1613 273,1606 272,1600 272,1403 272,1403 " style="fill:gold;stroke:gray50;stroke-width:1;stroke-linejoin:round;stroke-dasharray:"/>
<text  x="412" y="1502"  style="text-anchor:middle;font-family:Arial;font-size:22.400000000000002px"> Houston  </text>
<polyline points="402,1084 402,1235 407,1235 407,1378 " style="fill:none;stroke:black;stroke-width:1;stroke-linejoin:round;stroke-dasharray:"/>
<polyline points="407,1378 414.0,1364.0 400.0,1364.0 407,1378 " style="fill:blue;stroke:#1560BD;stroke-width:1;stroke-linejoin:round;stroke-dasharray:"/>
<text  x="407" y="1388"  style="text-anchor:middle;font-family:Arial;font-size:10px"> reference_input_LLC  </text>
<polyline points="416,1753 416,1689 408,1689 408,1625 " style="fill:none;stroke:black;stroke-width:1;stroke-linejoin:round;stroke-dasharray:"/>
<polyline points="408,1625 401.0,1639.0 415.0,1639.0 408,1625 " style="fill:blue;stroke:#1560BD;stroke-width:1;stroke-linejoin:round;stroke-dasharray:"/>
<text  x="408" y="1615"  style="text-anchor:middle;font-family:Arial;font-size:10px"> raw_AS_data  </text>
<polyline points="552,1543 658,1543 658,1335 747,1335 " style="fill:none;stroke:black;stroke-width:1;stroke-linejoin:round;stroke-dasharray:"/>
<polyline points="552,1543 552.0,1550.0 566.0,1543.0 552.0,1536.0 552,1543 " style="fill:blue;stroke:#1560BD;stroke-width:1;stroke-linejoin:round;stroke-dasharray:"/>
<text  x="552" y="1543"  style="text-anchor:end;font-family:Arial;font-size:10px"> raw_ASD  </text>
<polyline points="1711,1401 1712,1395 1714,1389 1718,1384 1723,1380 1729,1378 1735,1377 1735,1377 1965,1377 1965,1377 1971,1378 1977,1380 1982,1384 1986,1389 1988,1395 1989,1401 1989,1401 1989,1595 1989,1595 1988,1601 1986,1607 1982,1612 1977,1616 1971,1618 1965,1619 1965,1619 1735,1619 1735,1619 1729,1618 1723,1616 1718,1612 1714,1607 1712,1601 1711,1595 1711,1401 1711,1401 " style="fill:gold;stroke:gray50;stroke-width:1;stroke-linejoin:round;stroke-dasharray:"/>
<text  x="1850" y="1498"  style="text-anchor:middle;font-family:Arial;font-size:22.240000000000002px"> MS_Comm  </text>
<polyline points="1848,1750 1848,1687 1848,1687 1848,1619 " style="fill:none;stroke:black;stroke-width:1;stroke-linejoin:round;stroke-dasharray:"/>
<polyline points="1848,1619 1841.05,1632.9 1854.95,1632.9 1848,1619 " style="fill:blue;stroke:#1560BD;stroke-width:1;stroke-linejoin:round;stroke-dasharray:"/>
<text  x="1848" y="1609"  style="text-anchor:middle;font-family:Arial;font-size:10px"> raw_MS_data  </text>
<polyline points="1711,1541 1566,1541 1566,1331 1475,1331 " style="fill:none;stroke:black;stroke-width:1;stroke-linejoin:round;stroke-dasharray:"/>
<polyline points="1711,1541 1711.0,1534.05 1697.1,1541.0 1711.0,1547.95 1711,1541 " style="fill:blue;stroke:#1560BD;stroke-width:1;stroke-linejoin:round;stroke-dasharray:"/>
<text  x="1711" y="1541"  style="text-anchor:start;font-family:Arial;font-size:10px"> raw_MSD  </text>
<polyline points="747,1208 748,1204 749,1200 752,1197 755,1194 759,1193 763,1192 763,1192 1054,1192 1054,1192 1058,1193 1062,1194 1065,1197 1068,1200 1069,1204 1070,1208 1070,1208 1070,1340 1070,1340 1069,1344 1068,1348 1065,1351 1062,1354 1058,1355 1054,1356 1054,1356 763,1356 763,1356 759,1355 755,1354 752,1351 749,1348 748,1344 747,1340 747,1208 747,1208 " style="fill:gold;stroke:gray50;stroke-width:1;stroke-linejoin:round;stroke-dasharray:"/>
<text  x="909" y="1274"  style="text-anchor:middle;font-family:Arial;font-size:25.84px"> ASD_Processing  </text>
<polyline points="747,1335 730.8499999999999,1326.925 730.8499999999999,1343.075 747,1335 " style="fill:blue;stroke:#1560BD;stroke-width:1;stroke-linejoin:round;stroke-dasharray:"/>
<text  x="747" y="1335"  style="text-anchor:start;font-family:Arial;font-size:10px"> raw_ASD  </text>
<polyline points="926,1192 926,968 1023,968 1023,745 " style="fill:none;stroke:black;stroke-width:1;stroke-linejoin:round;stroke-dasharray:"/>
<polyline points="926,1192 934.075,1192.0 926.0,1175.85 917.925,1192.0 926,1192 " style="fill:blue;stroke:#1560BD;stroke-width:1;stroke-linejoin:round;stroke-dasharray:"/>
<text  x="926" y="1202"  style="text-anchor:middle;font-family:Arial;font-size:10px"> processed_ASD  </text>
<polyline points="1152,1207 1153,1203 1154,1199 1157,1195 1161,1192 1165,1191 1169,1190 1169,1190 1458,1190 1458,1190 1462,1191 1467,1192 1470,1195 1473,1199 1474,1203 1475,1207 1475,1207 1475,1338 1475,1338 1474,1342 1473,1347 1470,1350 1467,1353 1462,1354 1458,1355 1458,1355 1169,1355 1169,1355 1165,1354 1161,1353 1157,1350 1154,1347 1153,1342 1152,1338 1152,1207 1152,1207 " style="fill:gold;stroke:gray50;stroke-width:1;stroke-linejoin:round;stroke-dasharray:"/>
<text  x="1314" y="1273"  style="text-anchor:middle;font-family:Arial;font-size:25.84px"> MSD_Processing  </text>
<polyline points="1475,1331 1491.15,1339.075 1491.15,1322.925 1475,1331 " style="fill:blue;stroke:#1560BD;stroke-width:1;stroke-linejoin:round;stroke-dasharray:"/>
<text  x="1475" y="1331"  style="text-anchor:end;font-family:Arial;font-size:10px"> raw_MSD  </text>
<polyline points="1317,1190 1317,967 1232,967 1232,745 " style="fill:none;stroke:black;stroke-width:1;stroke-linejoin:round;stroke-dasharray:"/>
<polyline points="1317,1190 1325.075,1190.0 1317.0,1173.85 1308.925,1190.0 1317,1190 " style="fill:blue;stroke:#1560BD;stroke-width:1;stroke-linejoin:round;stroke-dasharray:"/>
<text  x="1317" y="1200"  style="text-anchor:middle;font-family:Arial;font-size:10px"> processed_MSD  </text>
<polyline points="442,37 443,29 446,22 451,16 457,11 464,8 472,7 472,7 869,7 869,7 877,8 884,11 890,16 895,22 898,29 899,37 899,37 899,276 899,276 898,284 895,291 890,297 884,302 877,305 869,306 869,306 472,306 472,306 464,305 457,302 451,297 446,291 443,284 442,276 442,37 442,37 " style="fill:gold;stroke:gray50;stroke-width:1;stroke-linejoin:round;stroke-dasharray:"/>
<text  x="671" y="157"  style="text-anchor:middle;font-family:Arial;font-size:30px"> GUI  </text>
<polyline points="1216,424 1216,78 900,78 " style="fill:none;stroke:black;stroke-width:1;stroke-linejoin:round;stroke-dasharray:"/>
<polyline points="899,78 921.85,89.42499999999995 921.85,66.57500000000005 899,78 " style="fill:blue;stroke:#1560BD;stroke-width:1;stroke-linejoin:round;stroke-dasharray:"/>
<text  x="899" y="78"  style="text-anchor:end;font-family:Arial;font-size:10px"> world_events_GUI  </text>
<polyline points="1009,424 1009,351 1166,351 1166,220 899,220 " style="fill:none;stroke:black;stroke-width:1;stroke-linejoin:round;stroke-dasharray:"/>
<polyline points="899,220 921.85,231.42499999999995 921.85,208.57500000000005 899,220 " style="fill:blue;stroke:#1560BD;stroke-width:1;stroke-linejoin:round;stroke-dasharray:"/>
<text  x="899" y="220"  style="text-anchor:end;font-family:Arial;font-size:10px"> world_data_GUI  </text>
<polyline points="442,220 70,220 70,709 204,709 " style="fill:none;stroke:black;stroke-width:1;stroke-linejoin:round;stroke-dasharray:"/>
<polyline points="442,220 442.0,208.575 419.15,220.0 442.0,231.425 442,220 " style="fill:blue;stroke:#1560BD;stroke-width:1;stroke-linejoin:round;stroke-dasharray:"/>
<text  x="442" y="220"  style="text-anchor:start;font-family:Arial;font-size:10px"> user_data  </text>
<polyline points="442,74 126,74 126,450 213,450 " style="fill:none;stroke:black;stroke-width:1;stroke-linejoin:round;stroke-dasharray:"/>
<polyline points="442,74 442.0,62.57499999999999 419.15,74.0 442.0,85.42500000000001 442,74 " style="fill:blue;stroke:#1560BD;stroke-width:1;stroke-linejoin:round;stroke-dasharray:"/>
<text  x="442" y="74"  style="text-anchor:start;font-family:Arial;font-size:10px"> user_events  </text>
<polyline points="212,408 213,404 214,400 217,396 221,393 225,392 229,391 229,391 569,391 569,391 573,392 578,393 581,396 584,400 585,404 586,408 586,408 586,548 586,548 585,552 584,557 581,560 578,563 573,564 569,565 569,565 229,565 229,565 225,564 221,563 217,560 214,557 213,552 212,548 212,408 212,408 " style="fill:gold;stroke:gray50;stroke-width:1;stroke-linejoin:round;stroke-dasharray:"/>
<text  x="399" y="478"  style="text-anchor:middle;font-family:Arial;font-size:29.92px"> MissionSupervisor  </text>
<polyline points="212,450 193.3,440.65 193.3,459.35 212,450 " style="fill:blue;stroke:#1560BD;stroke-width:1;stroke-linejoin:round;stroke-dasharray:"/>
<text  x="212" y="450"  style="text-anchor:start;font-family:Arial;font-size:10px"> user_events  </text>
<polyline points="905,509 744,509 744,450 587,450 " style="fill:none;stroke:black;stroke-width:1;stroke-linejoin:round;stroke-dasharray:"/>
<polyline points="586,450 604.7,459.35 604.7,440.65 586,450 " style="fill:blue;stroke:#1560BD;stroke-width:1;stroke-linejoin:round;stroke-dasharray:"/>
<text  x="586" y="450"  style="text-anchor:end;font-family:Arial;font-size:10px"> world_events  </text>
<polyline points="392,565 392,613 387,613 387,661 " style="fill:none;stroke:black;stroke-width:1;stroke-linejoin:round;stroke-dasharray:"/>
<polyline points="392,565 382.65,565.0 392.0,583.7 401.35,565.0 392,565 " style="fill:blue;stroke:#1560BD;stroke-width:1;stroke-linejoin:round;stroke-dasharray:"/>
<text  x="392" y="555"  style="text-anchor:middle;font-family:Arial;font-size:10px"> system_state  </text>
<polyline points="905,456 906,448 909,440 914,433 921,428 929,425 937,424 937,424 1327,424 1327,424 1335,425 1343,428 1350,433 1355,440 1358,448 1359,456 1359,456 1359,713 1359,713 1358,721 1355,729 1350,736 1343,741 1335,744 1327,745 1327,745 937,745 937,745 929,744 921,741 914,736 909,729 906,721 905,713 905,456 905,456 " style="fill:gold;stroke:gray50;stroke-width:1;stroke-linejoin:round;stroke-dasharray:"/>
<text  x="1132" y="585"  style="text-anchor:middle;font-family:Arial;font-size:30px"> WorldModel  </text>
<polyline points="1023,745 1011.6500000000001,767.7 1034.35,767.7 1023,745 " style="fill:blue;stroke:#1560BD;stroke-width:1;stroke-linejoin:round;stroke-dasharray:"/>
<text  x="1023" y="735"  style="text-anchor:middle;font-family:Arial;font-size:10px"> processed_ASD  </text>
<polyline points="1232,745 1220.65,767.7 1243.35,767.7 1232,745 " style="fill:blue;stroke:#1560BD;stroke-width:1;stroke-linejoin:round;stroke-dasharray:"/>
<text  x="1232" y="735"  style="text-anchor:middle;font-family:Arial;font-size:10px"> processed_MSD  </text>
<polyline points="905,509 905.0,497.65 882.3,509.0 905.0,520.35 905,509 " style="fill:blue;stroke:#1560BD;stroke-width:1;stroke-linejoin:round;stroke-dasharray:"/>
<text  x="905" y="509"  style="text-anchor:start;font-family:Arial;font-size:10px"> world_events  </text>
<polyline points="905,664 739,664 739,710 578,710 " style="fill:none;stroke:black;stroke-width:1;stroke-linejoin:round;stroke-dasharray:"/>
<polyline points="905,664 905.0,652.65 882.3,664.0 905.0,675.35 905,664 " style="fill:blue;stroke:#1560BD;stroke-width:1;stroke-linejoin:round;stroke-dasharray:"/>
<text  x="905" y="664"  style="text-anchor:start;font-family:Arial;font-size:10px"> world_data  </text>
<polyline points="1009,424 1020.35,424.0 1009.0,401.3 997.65,424.0 1009,424 " style="fill:blue;stroke:#1560BD;stroke-width:1;stroke-linejoin:round;stroke-dasharray:"/>
<text  x="1009" y="434"  style="text-anchor:middle;font-family:Arial;font-size:10px"> world_data_GUI  </text>
<polyline points="1216,424 1227.35,424.0 1216.0,401.3 1204.65,424.0 1216,424 " style="fill:blue;stroke:#1560BD;stroke-width:1;stroke-linejoin:round;stroke-dasharray:"/>
<text  x="1216" y="434"  style="text-anchor:middle;font-family:Arial;font-size:10px"> world_events_GUI  </text>
<polyline points="204,677 205,673 206,669 209,666 212,663 216,662 220,661 220,661 561,661 561,661 565,662 569,663 572,666 575,669 576,673 577,677 577,677 577,801 577,801 576,805 575,809 572,812 569,815 565,816 561,817 561,817 220,817 220,817 216,816 212,815 209,812 206,809 205,805 204,801 204,677 204,677 " style="fill:gold;stroke:gray50;stroke-width:1;stroke-linejoin:round;stroke-dasharray:"/>
<text  x="391" y="739"  style="text-anchor:middle;font-family:Arial;font-size:29.84px"> AgentTrajectoryGenerator  </text>
<polyline points="387,661 396.325,642.35 377.675,642.35 387,661 " style="fill:blue;stroke:#1560BD;stroke-width:1;stroke-linejoin:round;stroke-dasharray:"/>
<text  x="387" y="671"  style="text-anchor:middle;font-family:Arial;font-size:10px"> system_state  </text>
<polyline points="204,709 185.35000000000002,699.675 185.35000000000002,718.325 204,709 " style="fill:blue;stroke:#1560BD;stroke-width:1;stroke-linejoin:round;stroke-dasharray:"/>
<text  x="204" y="709"  style="text-anchor:start;font-family:Arial;font-size:10px"> user_data  </text>
<polyline points="577,710 595.65,719.325 595.65,700.675 577,710 " style="fill:blue;stroke:#1560BD;stroke-width:1;stroke-linejoin:round;stroke-dasharray:"/>
<text  x="577" y="710"  style="text-anchor:end;font-family:Arial;font-size:10px"> world_data  </text>
<polyline points="391,817 391,867 390,867 390,919 " style="fill:none;stroke:black;stroke-width:1;stroke-linejoin:round;stroke-dasharray:"/>
<polyline points="391,817 381.675,817.0 391.0,835.65 400.325,817.0 391,817 " style="fill:blue;stroke:#1560BD;stroke-width:1;stroke-linejoin:round;stroke-dasharray:"/>
<text  x="391" y="807"  style="text-anchor:middle;font-family:Arial;font-size:10px"> agent_trajector_error  </text>
<polyline points="213,936 214,932 215,928 218,924 222,921 226,920 230,919 230,919 570,919 570,919 574,920 579,921 582,924 585,928 586,932 587,936 587,936 587,1067 587,1067 586,1071 585,1076 582,1079 579,1082 574,1083 570,1084 570,1084 230,1084 230,1084 226,1083 222,1082 218,1079 215,1076 214,1071 213,1067 213,936 213,936 " style="fill:gold;stroke:gray50;stroke-width:1;stroke-linejoin:round;stroke-dasharray:"/>
<text  x="400" y="1002"  style="text-anchor:middle;font-family:Arial;font-size:29.92px"> Agent_HLC  </text>
<polyline points="390,919 399.35,900.3 380.65,900.3 390,919 " style="fill:blue;stroke:#1560BD;stroke-width:1;stroke-linejoin:round;stroke-dasharray:"/>
<text  x="390" y="929"  style="text-anchor:middle;font-family:Arial;font-size:10px"> agent_trajector_error  </text>
<polyline points="402,1084 392.65,1084.0 402.0,1102.7 411.35,1084.0 402,1084 " style="fill:blue;stroke:#1560BD;stroke-width:1;stroke-linejoin:round;stroke-dasharray:"/>
<text  x="402" y="1074"  style="text-anchor:middle;font-family:Arial;font-size:10px"> reference_input_LLC  </text>
<polyline points="1669,1775 1670,1768 1672,1762 1677,1757 1682,1752 1688,1750 1695,1749 1695,1749 2006,1749 2006,1749 2013,1750 2019,1752 2024,1757 2029,1762 2031,1768 2032,1775 2032,1775 2032,1982 2032,1982 2031,1989 2029,1995 2024,2000 2019,2005 2013,2007 2006,2008 2006,2008 1695,2008 1695,2008 1688,2007 1682,2005 1677,2000 1672,1995 1670,1989 1669,1982 1669,1775 1669,1775 " style="fill:gold;stroke:gray50;stroke-width:1;stroke-linejoin:round;stroke-dasharray:"/>
<text  x="1851" y="1879"  style="text-anchor:middle;font-family:Arial;font-size:29.04px"> MS_Dummy  </text>
<polyline points="1669,1943 1650.85,1933.925 1650.85,1952.075 1669,1943 " style="fill:blue;stroke:#1560BD;stroke-width:1;stroke-linejoin:round;stroke-dasharray:"/>
<text  x="1669" y="1943"  style="text-anchor:start;font-family:Arial;font-size:10px"> clock_MS  </text>
<polyline points="1848,1749 1857.075,1749.0 1848.0,1730.85 1838.925,1749.0 1848,1749 " style="fill:blue;stroke:#1560BD;stroke-width:1;stroke-linejoin:round;stroke-dasharray:"/>
<text  x="1848" y="1759"  style="text-anchor:middle;font-family:Arial;font-size:10px"> raw_MS_data  </text>
<polyline points="238,1779 239,1772 241,1766 246,1761 251,1756 257,1754 264,1753 264,1753 575,1753 575,1753 582,1754 588,1756 593,1761 598,1766 600,1772 601,1779 601,1779 601,1986 601,1986 600,1993 598,1999 593,2004 588,2009 582,2011 575,2012 575,2012 264,2012 264,2012 257,2011 251,2009 246,2004 241,1999 239,1993 238,1986 238,1779 238,1779 " style="fill:gold;stroke:gray50;stroke-width:1;stroke-linejoin:round;stroke-dasharray:"/>
<text  x="420" y="1883"  style="text-anchor:middle;font-family:Arial;font-size:29.04px"> DroneDummy  </text>
<polyline points="601,1932 619.1500000000001,1941.075 619.1500000000001,1922.925 601,1932 " style="fill:blue;stroke:#1560BD;stroke-width:1;stroke-linejoin:round;stroke-dasharray:"/>
<text  x="601" y="1932"  style="text-anchor:end;font-family:Arial;font-size:10px"> clock_drone  </text>
<polyline points="416,1753 425.075,1753.0 416.0,1734.85 406.925,1753.0 416,1753 " style="fill:blue;stroke:#1560BD;stroke-width:1;stroke-linejoin:round;stroke-dasharray:"/>
<text  x="416" y="1763"  style="text-anchor:middle;font-family:Arial;font-size:10px"> raw_AS_data  </text>
</svg>